<svg xmlns="http://www.w3.org/2000/svg" viewBox="0 0 877.79 380.77"><defs><style>.cls-1{fill:#9746c6;}</style></defs><title>logo</title><g id="Layer_2" data-name="Layer 2"><g id="Layer_1-2" data-name="Layer 1"><path class="cls-1" d="M106.69,297.61l-83.3-90.69,83.3-90.69h88.23l-83.71,90.69,83.71,90.69Z" transform="translate(-23.39 -25.02)"/><path class="cls-1" d="M313.31,334.54a141.09,141.09,0,0,1-53.76-52.73q-19.91-33.85-19.9-76.13t19.9-75.91a141.65,141.65,0,0,1,53.76-52.53q33.85-18.87,74.48-18.88t74.48,18.88a138.7,138.7,0,0,1,53.35,52.53q19.49,33.64,19.49,75.91t-19.7,76.13a140.08,140.08,0,0,1-53.34,52.73q-33.66,18.87-74.28,18.87T313.31,334.54ZM443,266.42q20.72-23,20.73-60.74,0-38.16-20.73-60.93T387.79,122q-34.89,0-55.6,22.57t-20.73,61.14q0,38.17,20.73,60.94t55.6,22.78Q422.26,289.4,443,266.42Z" transform="translate(-23.39 -25.02)"/><path class="cls-1" d="M594.69,405.8H542.64L672.77,25h52.05Z" transform="translate(-23.39 -25.02)"/><path class="cls-1" d="M729.65,116.23h88.23l83.31,90.69-83.31,90.69H729.65l83.72-90.69Z" transform="translate(-23.39 -25.02)"/></g></g></svg>